<svg width="30" height="30" viewBox="0 0 30 30" fill="none" class="indexview__Facebook-zplxm6-0 hRTMYZ"><path fill-rule="evenodd" clip-rule="evenodd" d="M15.6826 25H6.10385C5.49403 25 5 24.5057 5 23.8961V6.10384C5 5.4941 5.49411 5 6.10385 5H23.8962C24.5058 5 25 5.4941 25 6.10384V23.8961C25 24.5057 24.5057 25 23.8962 25H18.7997V17.2549H21.3994L21.7886 14.2365H18.7997V12.3094C18.7997 11.4355 19.0424 10.84 20.2955 10.84L21.8939 10.8393V8.13962C21.6175 8.10284 20.6687 8.02065 19.5648 8.02065C17.2603 8.02065 15.6826 9.4273 15.6826 12.0105V14.2365H13.0763V17.2549H15.6826V25Z" fill="#7B7B7B"></path></svg>