<svg width="30" height="30" viewBox="0 0 30 30" fill="none" class="indexview__Instagram-zplxm6-1 hVYcen"><path fill-rule="evenodd" clip-rule="evenodd" d="M15 4C12.0126 4 11.638 4.01266 10.4647 4.0662C9.29389 4.1196 8.49426 4.30556 7.79458 4.57751C7.07123 4.85858 6.45779 5.2347 5.84623 5.84623C5.2347 6.45779 4.85858 7.07123 4.57751 7.79458C4.30556 8.49426 4.1196 9.29389 4.0662 10.4647C4.01266 11.638 4 12.0126 4 15C4 17.9874 4.01266 18.362 4.0662 19.5353C4.1196 20.7061 4.30556 21.5057 4.57751 22.2054C4.85858 22.9288 5.2347 23.5422 5.84623 24.1538C6.45779 24.7653 7.07123 25.1414 7.79458 25.4225C8.49426 25.6944 9.29389 25.8804 10.4647 25.9338C11.638 25.9873 12.0126 26 15 26C17.9874 26 18.362 25.9873 19.5353 25.9338C20.7061 25.8804 21.5057 25.6944 22.2054 25.4225C22.9288 25.1414 23.5422 24.7653 24.1538 24.1538C24.7653 23.5422 25.1414 22.9288 25.4225 22.2054C25.6944 21.5057 25.8804 20.7061 25.9338 19.5353C25.9873 18.362 26 17.9874 26 15C26 12.0126 25.9873 11.638 25.9338 10.4647C25.8804 9.29389 25.6944 8.49426 25.4225 7.79458C25.1414 7.07123 24.7653 6.45779 24.1538 5.84623C23.5422 5.2347 22.9288 4.85858 22.2054 4.57751C21.5057 4.30556 20.7061 4.1196 19.5353 4.0662C18.362 4.01266 17.9874 4 15 4ZM15 5.98193C17.9371 5.98193 18.285 5.99316 19.4449 6.04608C20.5174 6.09498 21.0998 6.27418 21.4874 6.42482C22.0009 6.62437 22.3673 6.86274 22.7522 7.24768C23.1372 7.63259 23.3755 7.99902 23.5751 8.51247C23.7257 8.90008 23.9049 9.48252 23.9538 10.555C24.0068 11.7149 24.018 12.0628 24.018 15C24.018 17.9371 24.0068 18.285 23.9538 19.4449C23.9049 20.5174 23.7257 21.0998 23.5751 21.4874C23.3755 22.0009 23.1372 22.3673 22.7522 22.7522C22.3673 23.1372 22.0009 23.3755 21.4874 23.5751C21.0998 23.7257 20.5174 23.9049 19.4449 23.9538C18.2852 24.0068 17.9373 24.018 15 24.018C12.0626 24.018 11.7148 24.0068 10.555 23.9538C9.48252 23.9049 8.90008 23.7257 8.51247 23.5751C7.99902 23.3755 7.63259 23.1372 7.24768 22.7522C6.86278 22.3673 6.62437 22.0009 6.42482 21.4874C6.27418 21.0998 6.09498 20.5174 6.04608 19.4449C5.99316 18.285 5.98193 17.9371 5.98193 15C5.98193 12.0628 5.99316 11.7149 6.04608 10.555C6.09498 9.48252 6.27418 8.90008 6.42482 8.51247C6.62437 7.99902 6.86274 7.63259 7.24768 7.24768C7.63259 6.86274 7.99902 6.62437 8.51247 6.42482C8.90008 6.27418 9.48252 6.09498 10.555 6.04608C11.7149 5.99316 12.0628 5.98193 15 5.98193ZM9.3514 15.0001C9.3514 11.8804 11.8804 9.3514 15.0001 9.3514C18.1197 9.3514 20.6487 11.8804 20.6487 15.0001C20.6487 18.1197 18.1197 20.6487 15.0001 20.6487C11.8804 20.6487 9.3514 18.1197 9.3514 15.0001ZM15 18.6667C12.9749 18.6667 11.3333 17.0251 11.3333 15C11.3333 12.9749 12.9749 11.3333 15 11.3333C17.0251 11.3333 18.6667 12.9749 18.6667 15C18.6667 17.0251 17.0251 18.6667 15 18.6667ZM20.8718 10.4481C21.6008 10.4481 22.1918 9.85715 22.1918 9.12813C22.1918 8.39911 21.6008 7.80811 20.8718 7.80811C20.1428 7.80811 19.5518 8.39911 19.5518 9.12813C19.5518 9.85715 20.1428 10.4481 20.8718 10.4481Z" fill="#7B7B7B"></path></svg>