<svg width="91" height="75" viewBox="0 0 91 75" fill="none" class="TextCarousel__QuoteImage-uixcly-8 ickbvf"><path d="M90.9802 7.78942C82.6467 14.1301 76.6684 20.1991 73.0451 25.9963C69.603 31.6123 67.882 37.8624 67.882 44.7466C70.2371 43.2973 72.9545 42.5727 76.0343 42.5727C80.201 42.5727 83.5526 44.022 86.0888 46.9206C88.8063 49.638 90.165 53.1707 90.165 57.5186C90.165 62.41 88.444 66.3956 85.0019 69.4753C81.7409 72.5551 77.3024 74.095 71.6864 74.095C58.8238 74.095 52.3926 65.5803 52.3926 48.551C52.3926 44.022 52.936 39.8552 54.023 36.0508C55.11 32.0652 56.831 28.2608 59.1862 24.6376C61.7224 20.8331 65.0739 17.0287 69.2407 13.2243C73.4074 9.23872 78.5706 4.98139 84.7301 0.452326L90.9802 7.78942ZM38.8053 7.78942C30.4719 14.1301 24.4935 20.1991 20.8702 25.9963C17.4281 31.6123 15.7071 37.8624 15.7071 44.7466C18.0622 43.2973 20.7797 42.5727 23.8594 42.5727C28.0262 42.5727 31.3777 44.022 33.914 46.9206C36.6314 49.638 37.9901 53.1707 37.9901 57.5186C37.9901 62.41 36.2691 66.3956 32.827 69.4753C29.566 72.5551 25.1276 74.095 19.5115 74.095C6.64895 74.095 0.217674 65.5803 0.217674 48.551C0.217674 44.022 0.761162 39.8552 1.84814 36.0508C2.93512 32.0652 4.65616 28.2608 7.01128 24.6376C9.54756 20.8331 12.8991 17.0287 17.0658 13.2243C21.2326 9.23872 26.3957 4.98139 32.5552 0.452326L38.8053 7.78942Z" fill="#C7AD4A"></path></svg>