<svg width="30" height="30" viewBox="0 0 30 30" fill="none" class="indexview__Youtube-zplxm6-2 kuDAPa"><path fill-rule="evenodd" clip-rule="evenodd" d="M12.7285 17.6648L12.7278 11.4397L18.6719 14.563L12.7285 17.6648ZM25.78 10.3615C25.78 10.3615 25.5648 8.8348 24.9055 8.1625C24.0688 7.27972 23.1311 7.27557 22.7014 7.22433C19.6228 7 15.0048 7 15.0048 7H14.9952C14.9952 7 10.3773 7 7.29862 7.22433C6.86825 7.27557 5.93119 7.27972 5.09381 8.1625C4.4345 8.8348 4.22 10.3615 4.22 10.3615C4.22 10.3615 4 12.1547 4 13.9473V15.6284C4 17.4217 4.22 19.2142 4.22 19.2142C4.22 19.2142 4.4345 20.7409 5.09381 21.4132C5.93119 22.296 7.0305 22.2683 7.52 22.3604C9.28 22.5307 15 22.5833 15 22.5833C15 22.5833 19.6228 22.5764 22.7014 22.3521C23.1311 22.3001 24.0688 22.296 24.9055 21.4132C25.5648 20.7409 25.78 19.2142 25.78 19.2142C25.78 19.2142 26 17.4217 26 15.6284V13.9473C26 12.1547 25.78 10.3615 25.78 10.3615Z" fill="#7B7B7B"></path></svg>